<svg xmlns="http://www.w3.org/2000/svg" xmlns:xlink="http://www.w3.org/1999/xlink" viewBox="0 0 1117.7 322.8">
  <defs>
    <style>
      .cls-1 {
        fill: url(#linear-gradient);
      }

      .cls-2 {
        fill: #fff;
        fill-rule: evenodd;
      }

      .cls-3 {
        fill: #4d4c4d;
      }
    </style>
    <linearGradient id="linear-gradient" y1="-498.6" x2="322.8" y2="-498.6" gradientTransform="translate(0 660)" gradientUnits="userSpaceOnUse">
      <stop offset="0" stop-color="#53b15c"/>
      <stop offset="0.5" stop-color="#5cb45f"/>
      <stop offset="1" stop-color="#6db967"/>
    </linearGradient>
  </defs>
  <title>Medibook2</title>
  <g id="Layer_2" data-name="Layer 2">
    <g id="Layer_1-2" data-name="Layer 1">
      <g id="MediBook">
        <g id="V4_light" data-name="V4 light">
          <circle class="cls-1" cx="161.4" cy="161.4" r="161.4"/>
          <path class="cls-2" d="M245.6,185.1l-37.4,37.4a1.21,1.21,0,0,1-.5.5l-36.8,36.8a4.44,4.44,0,0,1-1.1.8,32,32,0,0,1-4.3,1.7h-.2l-.3.1h0a3.55,3.55,0,0,1-1,.2l-.4.1a7.72,7.72,0,0,1-1.5.2,9,9,0,0,1-4.3-.6h0a7.09,7.09,0,0,1-3.9-4.7,2.46,2.46,0,0,1-.1-1.2V198.3a2,2,0,0,0-1.7-2,50.06,50.06,0,0,1-40.4-48.7v-.5a49.68,49.68,0,0,1,1.6-12.7,2.13,2.13,0,0,1,2-1.6h25.5a2.11,2.11,0,0,1,2.1,2.1h0v10.5a2.11,2.11,0,0,1-2.1,2.1H129.1a2.05,2.05,0,0,0-2.1,2.1v.2a34.76,34.76,0,0,0,69.3,0,2.13,2.13,0,0,0-1.9-2.3H183.2a2.11,2.11,0,0,1-2.1-2.1h0V134.9a2.11,2.11,0,0,1,2.1-2.1h25.2a2,2,0,0,1,2,1.6,49.13,49.13,0,0,1,1.6,12.7v.5a50.17,50.17,0,0,1-40.9,48.7,2.14,2.14,0,0,0-1.7,2.1,52.07,52.07,0,0,1,0,5.6v30a2.22,2.22,0,0,0,2.2,2.2,2,2,0,0,0,1.5-.6l3.5-3.3h0a34.67,34.67,0,0,0,2.9-2.5L233.3,176a29.09,29.09,0,0,0,0-41.2L182.5,84a29.09,29.09,0,0,0-41.2,0L90.5,134.8a29.09,29.09,0,0,0,0,41.2l48.9,48.9a2.27,2.27,0,0,1,.6,1.6l-.2,15.6a2.22,2.22,0,0,1-2.2,2.2,2,2,0,0,1-1.5-.6l-19.7-19.4L77.2,185.1a41.16,41.16,0,0,1,0-58.1h0l55.2-55.2a41.16,41.16,0,0,1,58.1,0L245.7,127A41.07,41.07,0,0,1,245.6,185.1Z"/>
        </g>
      </g>
      <g id="MediBook-2" data-name="MediBook">
        <g id="MEDIBOOK-2-2" data-name="MEDIBOOK-2">
          <path class="cls-3" d="M500.7,141.5c6.9,6.9,10.4,17.1,10.4,30.6v44H489.3v-44c0-6.7-1.3-11.6-3.9-14.9s-6.6-4.9-12-4.9-9.3,1.6-12,4.9-4,8.2-3.9,14.9v44H435.7v-44c0-6.7-1.3-11.6-3.8-14.9s-6.6-4.9-12-4.9-9.3,1.6-12,4.9-4,8.2-3.9,14.9v44H382.2v-44c0-13.5,3.5-23.7,10.4-30.6s16-10.4,27.3-10.4a38.69,38.69,0,0,1,15.4,2.9,28.54,28.54,0,0,1,11.4,8.6,28,28,0,0,1,11.5-8.6,38.54,38.54,0,0,1,15.3-2.9C484.7,131.1,493.7,134.6,500.7,141.5Z"/>
          <path class="cls-3" d="M525.8,153a44.28,44.28,0,0,1,15.4-15.9,40.72,40.72,0,0,1,21.5-5.9,46.25,46.25,0,0,1,20.6,4.9,42.46,42.46,0,0,1,16.3,14.3,40.26,40.26,0,0,1,6.8,22.1,52,52,0,0,1-.7,10.4H543.6a16.38,16.38,0,0,0,6.6,9.8,21.25,21.25,0,0,0,12.5,3.6,24.38,24.38,0,0,0,8.5-1.3,27,27,0,0,0,5.9-3.5l25.9.2a43.74,43.74,0,0,1-15.9,18.7,41.18,41.18,0,0,1-23.8,7.2,41.67,41.67,0,0,1-21.8-5.8,42.45,42.45,0,0,1-15.6-15.6,42.9,42.9,0,0,1-5.8-21.6A44.63,44.63,0,0,1,525.8,153Zm57.3,12.4a21.84,21.84,0,0,0-19.7-13,20.34,20.34,0,0,0-12,3.5,22.29,22.29,0,0,0-7.7,9.5Z"/>
          <path class="cls-3" d="M695.1,195.9a42.71,42.71,0,0,1-15.6,15.7,43.28,43.28,0,0,1-43.2,0,43.75,43.75,0,0,1-15.7-15.7,43,43,0,0,1,0-43.3,43.75,43.75,0,0,1,15.7-15.7,42.9,42.9,0,0,1,21.6-5.8c8.1,0,15.2,2.1,21.1,6.4V99h21.9v75.3A41,41,0,0,1,695.1,195.9Zm-52.6-37.2a23.28,23.28,0,0,0,0,31.2,20.39,20.39,0,0,0,15.2,6.3,20.67,20.67,0,0,0,15.4-6.3,21.58,21.58,0,0,0,6.2-15.6,21.35,21.35,0,0,0-21.6-21.9A20,20,0,0,0,642.5,158.7Z"/>
          <path class="cls-3" d="M718,119.8a12.83,12.83,0,0,1-3.8-9.3,12.16,12.16,0,0,1,3.8-9.1,12.83,12.83,0,0,1,9.3-3.8,12.16,12.16,0,0,1,9.1,3.8,13,13,0,0,1-9.1,22.2A12.76,12.76,0,0,1,718,119.8Zm-1.5,12.7h21.7v83.6H716.4V132.5Z"/>
          <path class="cls-3" d="M751.9,99h21.9v38.5a35.42,35.42,0,0,1,21.1-6.4,41.22,41.22,0,0,1,21.6,5.8A43.38,43.38,0,0,1,832.2,196a43.75,43.75,0,0,1-15.7,15.7,43,43,0,0,1-64.6-37.4V99Zm27.8,59.7a21.9,21.9,0,0,0,15.4,37.5,19.87,19.87,0,0,0,15.2-6.3,23.28,23.28,0,0,0,0-31.2,20.39,20.39,0,0,0-15.2-6.3A20.67,20.67,0,0,0,779.7,158.7Z"/>
          <path class="cls-3" d="M909.6,136.9a43.14,43.14,0,1,1-59,15.7,43.42,43.42,0,0,1,59-15.7Zm-36.9,21.8a21.74,21.74,0,0,0-6.2,15.6,21.35,21.35,0,0,0,21.6,21.9,19.87,19.87,0,0,0,15.2-6.3,23.28,23.28,0,0,0,0-31.2,20.39,20.39,0,0,0-15.2-6.3A20.67,20.67,0,0,0,872.7,158.7Z"/>
          <path class="cls-3" d="M1004.3,136.9a43.21,43.21,0,1,1-59,15.8,43.25,43.25,0,0,1,59-15.8Zm-36.9,21.8a21.58,21.58,0,0,0-6.2,15.6,21.35,21.35,0,0,0,21.6,21.9,19.87,19.87,0,0,0,15.2-6.3,23.28,23.28,0,0,0,0-31.2,21.73,21.73,0,0,0-30.6,0Z"/>
          <path class="cls-3" d="M1035,99h21.8v61.1l27.8-27.6h27.8l-31.8,32.1,37.1,51.5h-24.3l-27.6-37.8-9,9v28.8H1035Z"/>
        </g>
      </g>
    </g>
  </g>
</svg>
