<svg id="Layer_1" data-name="Layer 1" xmlns="http://www.w3.org/2000/svg" viewBox="0 0 1123 322.8">
  <defs>
    <style>
      .cls-1 {
        fill: #fff;
      }

      .cls-2 {
        fill: #15be77;
        fill-rule: evenodd;
      }
    </style>
  </defs>
  <title>medibook whiteorg</title>
  <g id="Layer_1-2" data-name="Layer 1-2">
    <g id="MediBook">
      <g id="V4_green_1" data-name="V4 green 1">
        <circle class="cls-1" cx="161.4" cy="161.4" r="161.4"/>
        <path class="cls-2" d="M245.6,185.1l-37.4,37.4a1.21,1.21,0,0,1-.5.5l-36.8,36.8a4.37,4.37,0,0,1-1.1.8,31.76,31.76,0,0,1-4.3,1.7h-.2l-.3.1h0a3.78,3.78,0,0,1-1,.2l-.4.1a7.52,7.52,0,0,1-1.5.2,9,9,0,0,1-4.3-.6h0a7.1,7.1,0,0,1-3.9-4.7,2.45,2.45,0,0,1-.1-1.2V198.3a2,2,0,0,0-1.7-2,50.06,50.06,0,0,1-40.4-48.7v-.5a49.52,49.52,0,0,1,1.6-12.7,2.13,2.13,0,0,1,2-1.6h25.5a2.11,2.11,0,0,1,2.1,2.1h0v10.5a2.11,2.11,0,0,1-2.1,2.1H129.1a2.05,2.05,0,0,0-2.1,2v.3a34.76,34.76,0,0,0,69.3,0,2.13,2.13,0,0,0-1.9-2.3H183.2a2.11,2.11,0,0,1-2.1-2.1h0V134.9a2.11,2.11,0,0,1,2.1-2.1h25.2a2,2,0,0,1,2,1.6,49.52,49.52,0,0,1,1.6,12.7v.5a50.17,50.17,0,0,1-40.9,48.7,2.15,2.15,0,0,0-1.7,2.1,52.3,52.3,0,0,1,0,5.6v30a2.22,2.22,0,0,0,2.2,2.2,2,2,0,0,0,1.5-.6l3.5-3.3h0a34.42,34.42,0,0,0,2.9-2.5L233.3,176a29.09,29.09,0,0,0,.06-41.14l-.06-.06L182.5,84a29.09,29.09,0,0,0-41.14-.06l-.06.06L90.5,134.8a29.09,29.09,0,0,0-.06,41.14l.06.06,48.9,48.9a2.25,2.25,0,0,1,.6,1.6l-.2,15.6a2.22,2.22,0,0,1-2.2,2.2,2,2,0,0,1-1.5-.6l-19.7-19.4L77.2,185.1a41.16,41.16,0,0,1,0-58.1h0l55.2-55.2a41.16,41.16,0,0,1,58.1,0L245.7,127a41.07,41.07,0,0,1-.08,58.08Z"/>
      </g>
    </g>
    <g id="MediBook-2">
      <g id="MEDIBOOK-2-2">
        <path class="cls-1" d="M505.9,145.4c6.9,6.9,10.4,17.1,10.4,30.6v44H494.5V176c0-6.7-1.3-11.6-3.8-14.9s-6.6-4.9-12-4.9-9.3,1.6-12,4.9-4,8.2-3.9,14.9v44H441V176c0-6.7-1.3-11.6-3.8-14.9s-6.6-4.9-12-4.9-9.3,1.6-12,4.9-4,8.2-3.9,14.9v44H387.5V176c0-13.5,3.5-23.7,10.4-30.6s16-10.4,27.3-10.4a38.69,38.69,0,0,1,15.4,2.9,28.45,28.45,0,0,1,11.4,8.6,28,28,0,0,1,11.5-8.6,38.59,38.59,0,0,1,15.3-2.9C489.9,135,499,138.5,505.9,145.4Z"/>
        <path class="cls-1" d="M531.1,156.8a44.2,44.2,0,0,1,15.4-15.9A40.72,40.72,0,0,1,568,135a46.36,46.36,0,0,1,20.6,4.9,42.44,42.44,0,0,1,16.3,14.3,40.28,40.28,0,0,1,6.8,22.1,51.74,51.74,0,0,1-.7,10.4H548.9a16.38,16.38,0,0,0,6.6,9.8,21.21,21.21,0,0,0,12.5,3.6,24.53,24.53,0,0,0,8.5-1.3,27,27,0,0,0,5.9-3.5l25.9.2a43.77,43.77,0,0,1-15.9,18.7,41.13,41.13,0,0,1-23.8,7.2,41.67,41.67,0,0,1-21.8-5.8A42.45,42.45,0,0,1,531.2,200a42.88,42.88,0,0,1-5.8-21.6A45.15,45.15,0,0,1,531.1,156.8Zm57.3,12.5a21.86,21.86,0,0,0-19.7-13,20.32,20.32,0,0,0-12,3.5,22.33,22.33,0,0,0-7.7,9.5Z"/>
        <path class="cls-1" d="M700.4,199.8a42.71,42.71,0,0,1-15.6,15.7,43.28,43.28,0,0,1-43.2,0,43.75,43.75,0,0,1-15.7-15.7,43,43,0,0,1,0-43.3,43.75,43.75,0,0,1,15.7-15.7,42.88,42.88,0,0,1,21.6-5.8c8.1,0,15.2,2.1,21.1,6.4V102.9h21.9v75.3A42.88,42.88,0,0,1,700.4,199.8Zm-52.6-37.3a23.28,23.28,0,0,0,0,31.2A20.39,20.39,0,0,0,663,200a20.68,20.68,0,0,0,15.4-6.3,21.59,21.59,0,0,0,6.2-15.6,21.34,21.34,0,0,0-20.79-21.89H663a20.78,20.78,0,0,0-15.2,6.3Z"/>
        <path class="cls-1" d="M723.3,123.7a12.81,12.81,0,0,1-3.8-9.3,12.13,12.13,0,0,1,3.8-9.1,12.81,12.81,0,0,1,9.3-3.8,12.13,12.13,0,0,1,9.1,3.8,13,13,0,1,1-18.4,18.4Zm-1.6,12.6h21.8v83.6H721.7Z"/>
        <path class="cls-1" d="M757.2,102.9h21.9v38.5a35.4,35.4,0,0,1,21.1-6.4,41.23,41.23,0,0,1,21.6,5.8,43.22,43.22,0,1,1-64.6,37.4ZM785,162.5A21.9,21.9,0,0,0,800.4,200a19.85,19.85,0,0,0,15.2-6.3,23.28,23.28,0,0,0,0-31.2,20.39,20.39,0,0,0-15.2-6.3A21,21,0,0,0,785,162.5Z"/>
        <path class="cls-1" d="M914.9,140.8a43.14,43.14,0,1,1-59,15.7A43.15,43.15,0,0,1,914.9,140.8ZM878,162.5a21.73,21.73,0,0,0-6.2,15.6A21.34,21.34,0,0,0,892.59,200h.81a19.85,19.85,0,0,0,15.2-6.3,23.28,23.28,0,0,0,0-31.2,20.39,20.39,0,0,0-15.2-6.3A21,21,0,0,0,878,162.5Z"/>
        <path class="cls-1" d="M1009.6,140.8a43.21,43.21,0,1,1-59,15.84l0,0A43.25,43.25,0,0,1,1009.6,140.8Zm-36.9,21.7a21.59,21.59,0,0,0-6.2,15.6A21.34,21.34,0,0,0,987.29,200h.81a19.85,19.85,0,0,0,15.2-6.3,23.28,23.28,0,0,0,0-31.2,20.39,20.39,0,0,0-15.2-6.3,21,21,0,0,0-15.4,6.3Z"/>
        <path class="cls-1" d="M1040.3,102.9h21.8V164l27.8-27.6h27.8l-31.8,32.1L1123,220h-24.3l-27.6-37.8-9,9V220h-21.8Z"/>
      </g>
    </g>
  </g>
</svg>
