<?xml version="1.0" encoding="UTF-8" standalone="no"?>
<!-- Created with Inkscape (http://www.inkscape.org/) -->

<svg
   width="143.11842"
   height="41.217377"
   viewBox="0 0 143.11842 41.217377"
   version="1.1"
   id="svg1"
   xmlns:inkscape="http://www.inkscape.org/namespaces/inkscape"
   xmlns:sodipodi="http://sodipodi.sourceforge.net/DTD/sodipodi-0.dtd"
   xmlns="http://www.w3.org/2000/svg"
   xmlns:svg="http://www.w3.org/2000/svg">
  <sodipodi:namedview
     id="namedview1"
     pagecolor="#ffffff"
     bordercolor="#000000"
     borderopacity="0.25"
     inkscape:showpageshadow="2"
     inkscape:pageopacity="0.0"
     inkscape:pagecheckerboard="0"
     inkscape:deskcolor="#d1d1d1"
     inkscape:document-units="px" />
  <defs
     id="defs1">
    <linearGradient
       id="linear-gradient"
       x1="171.86"
       y1="729.13"
       x2="494.59"
       y2="729.13"
       gradientUnits="userSpaceOnUse">
      <stop
         offset="0"
         stop-color="#74bd7f"
         id="stop1" />
      <stop
         offset="1"
         stop-color="#3cb075"
         id="stop2" />
    </linearGradient>
  </defs>
  <g
     inkscape:label="Layer 1"
     inkscape:groupmode="layer"
     id="layer1"
     transform="translate(-19.142023,-64.376152)">
    <g
       id="V4_light"
       transform="matrix(0.12771867,0,0,0.12771867,-2.8077075,-8.1386741)"
       inkscape:export-filename="Medibook3.svg"
       inkscape:export-xdpi="45.537529"
       inkscape:export-ydpi="45.537529">
      <path
         d="m 96.191746,-84.983317 q 16.896294,0 27.268274,10.37198 10.37197,10.37198 10.37197,30.614069 V 0 H 112.0843 v -43.997268 q 0,-10.0374 -3.84767,-14.88881 -3.84767,-4.851409 -12.044884,-4.851409 -8.02992,0 -12.044879,4.851409 -3.84767,4.85141 -3.84767,14.88881 V 0 H 58.551498 v -43.997268 q 0,-10.0374 -3.84767,-14.88881 -3.84767,-4.851409 -12.04488,-4.851409 -8.029919,0 -12.044879,4.851409 -3.84767,4.85141 -3.84767,14.88881 V 0 H 5.0186998 v -43.997268 q 0,-20.242089 10.3719792,-30.614069 10.37198,-10.37198 27.268269,-10.37198 8.3645,0 15.22339,3.01122 7.026179,2.84393 11.543009,8.53179 4.51683,-5.68786 11.37572,-8.53179 7.026179,-3.01122 15.390679,-3.01122 z m 46.841184,43.328109 q 0,-11.54301 5.52057,-21.413119 5.68786,-10.0374 15.39068,-15.89255 9.87011,-6.02244 21.58041,-6.02244 10.70656,0 20.57666,5.0187 9.87011,4.85141 16.22713,14.21965 6.52431,9.368239 6.85889,22.082279 0.16729,5.35328 -0.66916,10.371979 h -62.06458 q 1.50561,6.18973 6.52431,9.87011 5.18599,3.51309 12.54675,3.51309 5.18599,0 8.3645,-1.33832 3.3458,-1.33832 6.02244,-3.51309 l 25.92994,0.16729 q -5.18599,11.54301 -15.89255,18.7364792 -10.70655,7.1934697 -23.75517,7.1934697 -11.87759,0 -21.7477,-5.6878597 -9.87011,-5.8551502 -15.72526,-15.7252592 -5.68786,-9.87011 -5.68786,-21.580409 z m 62.90103,-9.03366 q -2.50935,-5.85515 -8.02991,-9.36824 -5.35328,-3.680379 -11.7103,-3.680379 -7.02618,0 -12.04488,3.513089 -5.0187,3.51309 -7.69534,9.53553 z m 117.77225,8.86637 q 0,11.710299 -5.85515,21.747699 -5.68786,9.870109 -15.55797,15.7252592 -9.87011,5.6878597 -21.58041,5.6878597 -11.7103,0 -21.58041,-5.6878597 -9.87011,-5.8551502 -15.72526,-15.7252592 -5.85515,-10.0374 -5.85515,-21.747699 0,-11.7103 5.85515,-21.580409 5.85515,-10.0374 15.72526,-15.72526 9.87011,-5.85515 21.58041,-5.85515 12.21217,0 21.07854,6.35702 V -117.103 h 21.91499 z m -43.16082,-21.914989 q -9.20095,0 -15.22339,6.357019 -6.02244,6.18973 -6.02244,15.55797 0,9.368239 6.02244,15.725259 6.02244,6.18973 15.22339,6.18973 9.20095,0 15.39068,-6.18973 6.18973,-6.35702 6.18973,-15.725259 0,-9.36824 -6.18973,-15.55797 -6.18973,-6.357019 -15.39068,-6.357019 z m 69.59267,-28.773879 q -5.52057,0 -9.36824,-3.68038 -3.68038,-3.847674 -3.68038,-9.368244 0,-5.35328 3.68038,-9.03366 3.84767,-3.84767 9.36824,-3.84767 5.35328,0 9.03366,3.84767 3.84767,3.68038 3.84767,9.03366 0,5.52057 -3.84767,9.368244 -3.68038,3.68038 -9.03366,3.68038 z m -10.87385,8.866369 h 21.7477 V 0 h -21.7477 z M 374.72976,-117.103 h 21.91499 v 38.476703 q 8.86637,-6.35702 21.07854,-6.35702 11.7103,0 21.58041,5.85515 9.87011,5.68786 15.72526,15.72526 5.85515,9.870109 5.85515,21.580409 0,11.710299 -5.85515,21.747699 -5.85515,9.870109 -15.72526,15.7252592 -9.87011,5.6878597 -21.58041,5.6878597 -11.7103,0 -21.58041,-5.6878597 -9.87011,-5.8551502 -15.72526,-15.7252592 -5.68786,-10.0374 -5.68786,-21.747699 z m 43.16082,53.365513 q -9.20095,0 -15.39068,6.357019 -6.18973,6.18973 -6.18973,15.55797 0,9.368239 6.18973,15.725259 6.18973,6.18973 15.39068,6.18973 9.20095,0 15.22339,-6.18973 6.02244,-6.35702 6.02244,-15.725259 0,-9.36824 -6.02244,-15.55797 -6.02244,-6.357019 -15.22339,-6.357019 z m 92.84583,-21.24583 q 11.7103,0 21.58041,5.85515 10.0374,5.68786 15.72526,15.72526 5.85515,9.870109 5.85515,21.580409 0,11.710299 -5.85515,21.747699 -5.68786,9.870109 -15.72526,15.7252592 -9.87011,5.6878597 -21.58041,5.6878597 -11.7103,0 -21.7477,-5.6878597 -9.87011,-5.8551502 -15.72526,-15.7252592 -5.68786,-10.0374 -5.68786,-21.747699 0,-11.7103 5.68786,-21.580409 5.85515,-10.0374 15.72526,-15.72526 10.0374,-5.85515 21.7477,-5.85515 z m 0.16729,21.24583 q -9.20095,0 -15.39068,6.357019 -6.18973,6.18973 -6.18973,15.55797 0,9.368239 6.18973,15.725259 6.18973,6.18973 15.39068,6.18973 9.20095,0 15.22339,-6.18973 6.02244,-6.35702 6.02244,-15.725259 0,-9.36824 -6.02244,-15.55797 -6.02244,-6.357019 -15.22339,-6.357019 z m 94.51884,-21.24583 q 11.7103,0 21.58041,5.85515 10.03739,5.68786 15.72525,15.72526 5.85515,9.870109 5.85515,21.580409 0,11.710299 -5.85515,21.747699 -5.68786,9.870109 -15.72525,15.7252592 -9.87011,5.6878597 -21.58041,5.6878597 -11.7103,0 -21.7477,-5.6878597 -9.87011,-5.8551502 -15.72526,-15.7252592 -5.68786,-10.0374 -5.68786,-21.747699 0,-11.7103 5.68786,-21.580409 5.85515,-10.0374 15.72526,-15.72526 10.0374,-5.85515 21.7477,-5.85515 z m 0.16729,21.24583 q -9.20095,0 -15.39068,6.357019 -6.18973,6.18973 -6.18973,15.55797 0,9.368239 6.18973,15.725259 6.18973,6.18973 15.39068,6.18973 9.20095,0 15.22339,-6.18973 6.02244,-6.35702 6.02244,-15.725259 0,-9.36824 -6.02244,-15.55797 -6.02244,-6.357019 -15.22339,-6.357019 z M 657.78432,-117.103 h 21.7477 v 61.060852 l 27.77014,-27.602849 H 735.0723 L 703.2872,-51.525318 740.42558,0 h -24.25705 l -27.60285,-37.807538 -9.03366,9.033659 V 0 h -21.7477 z"
         id="text2"
         class="cls-2"
         style="font-weight:700;font-size:167.29px;font-family:NordiquePro-Bold;fill:#4d4c4d"
         transform="translate(552.01,785.15)"
         aria-label="medibook"
         inkscape:label="text2" />
      <circle
         class="cls-3"
         cx="333.22"
         cy="729.13"
         r="161.36"
         id="circle2"
         style="fill:url(#linear-gradient)" />
      <path
         class="cls-4"
         d="M 417.44,752.81 380,790.2 a 4.78,4.78 0 0 1 -0.47,0.54 l -36.79,36.79 a 3.85,3.85 0 0 1 -1.14,0.82 29.16,29.16 0 0 1 -4.26,1.67 l -0.18,0.05 -0.27,0.08 v 0 c -0.33,0.1 -0.66,0.17 -1,0.24 l -0.38,0.08 a 15,15 0 0 1 -1.5,0.21 8.83,8.83 0 0 1 -4.27,-0.6 v 0 a 7.13,7.13 0 0 1 -3.89,-4.67 4.43,4.43 0 0 1 -0.15,-1.15 V 766 a 2.07,2.07 0 0 0 -1.67,-2 50.07,50.07 0 0 1 -40.37,-48.67 c 0,-0.14 0,-0.3 0,-0.45 a 49.79,49.79 0 0 1 1.62,-12.65 2.09,2.09 0 0 1 2,-1.56 h 25.53 a 2.08,2.08 0 0 1 2.08,2.08 v 10.5 a 2.08,2.08 0 0 1 -2.08,2.08 h -11.7 a 2.09,2.09 0 0 0 -2.07,2.26 34.77,34.77 0 0 0 69.32,0 2.09,2.09 0 0 0 -2.08,-2.26 H 355 a 2.08,2.08 0 0 1 -2.08,-2.08 v -10.5 a 2.08,2.08 0 0 1 2.08,-2.08 h 25.17 a 2.09,2.09 0 0 1 2,1.56 50.24,50.24 0 0 1 1.61,12.65 v 0.45 A 50.05,50.05 0 0 1 342.9,764 a 2.07,2.07 0 0 0 -1.69,2.14 c 0.08,1.64 0.09,3.51 0,5.62 v 30 a 2.19,2.19 0 0 0 3.73,1.55 L 348.4,800 v 0 a 26.13,26.13 0 0 0 2.92,-2.5 l 53.8,-53.8 a 29.15,29.15 0 0 0 0,-41.22 l -50.79,-50.79 a 29.15,29.15 0 0 0 -41.22,0 l -50.79,50.79 a 29.15,29.15 0 0 0 0,41.22 l 48.88,48.88 a 2.18,2.18 0 0 1 0.64,1.57 l -0.2,15.58 a 2.18,2.18 0 0 1 -3.71,1.53 L 288.24,792 249,752.81 a 41.05,41.05 0 0 1 0,-58.07 l 55.18,-55.18 a 41.07,41.07 0 0 1 58.07,0 l 55.18,55.18 a 41.07,41.07 0 0 1 0.01,58.07 z"
         id="path2"
         style="fill:#ffffff;fill-rule:evenodd" />
    </g>
  </g>
</svg>
